<svg width="166" height="126" viewBox="0 0 166 126" fill="none" xmlns="http://www.w3.org/2000/svg">
  <g stroke="#2B2B2B" stroke-width="2.4" stroke-linecap="round" stroke-linejoin="round">
    <path d="M26 30.5C28.6 27.2 32.6 25.2 37.1 25.2C41.7 25.2 45.7 27.2 48.2 30.5" />
    <path d="M15.5 39.2C18.5 35.4 23.5 33 29.1 33C35.8 33 41.6 36.6 44.6 41.8C46.7 41 49 40.6 51.5 40.6C59.7 40.6 66.3 46.5 66.3 53.9C66.3 61.2 59.7 67.1 51.5 67.1H24.6C16.5 67.1 10 61.2 10 53.9C10 46.9 15.9 41.2 23.3 40.7" />
    <path d="M24.5 81.5C26.8 79.2 30.1 77.8 33.8 77.8C38.5 77.8 42.5 80 44.8 83.4" />
  </g>

  <g transform="translate(63 12) rotate(11 49 43)">
    <path
      d="M7.8 41.7H70.1C78.9 41.7 86 34.6 86 25.8C86 17 78.9 9.9 70.1 9.9H54.4L47.6 3.1C45 -0.2 39.6 1.5 39.6 5.8V16H27.8L16.2 9.3C12.6 7.2 8.1 9.8 8.1 13.9V16H5.9C2.8 16 0.3 18.5 0.3 21.6C0.3 24.7 2.8 27.2 5.9 27.2H13.4L7.8 41.7Z"
      fill="white"
    />
    <path
      d="M7.8 41.7H70.1C78.9 41.7 86 34.6 86 25.8C86 17 78.9 9.9 70.1 9.9H54.4L47.6 3.1C45 -0.2 39.6 1.5 39.6 5.8V16H27.8L16.2 9.3C12.6 7.2 8.1 9.8 8.1 13.9V16H5.9C2.8 16 0.3 18.5 0.3 21.6C0.3 24.7 2.8 27.2 5.9 27.2H13.4L7.8 41.7Z"
      stroke="#2B2B2B"
      stroke-width="2.5"
      stroke-linejoin="round"
    />
    <path
      d="M8 18.7H14.4L18.6 27.1H8.2C5.4 27.1 3.1 25.2 3.1 22.9V22.8C3.1 20.5 5.3 18.7 8 18.7Z"
      fill="#E34D4D"
      stroke="#2B2B2B"
      stroke-width="2.5"
      stroke-linejoin="round"
    />
    <path
      d="M85.3 20L97.7 13.1C100.6 11.5 104.2 13.6 104.2 17V22.3L92.6 27.4L85.3 20Z"
      fill="#E34D4D"
      stroke="#2B2B2B"
      stroke-width="2.5"
      stroke-linejoin="round"
    />
    <path
      d="M42.9 16.5L52.2 -7.2C53.7 -11.1 59.3 -10.5 60 -6.3L62.6 8.5L60.4 41.7H46.8L42.9 16.5Z"
      fill="#DDE6EB"
      stroke="#2B2B2B"
      stroke-width="2.5"
      stroke-linejoin="round"
    />
    <path
      d="M43 41.7L29.8 73.1C28.3 76.7 33 80 36.2 77.3L48.4 66.9L52.6 41.7H43Z"
      fill="white"
      stroke="#2B2B2B"
      stroke-width="2.5"
      stroke-linejoin="round"
    />
    <path
      d="M57.7 41.7L70.8 91C71.7 94.6 76.3 95.6 78.7 92.8L82.2 88.7L72.3 41.7H57.7Z"
      fill="white"
      stroke="#2B2B2B"
      stroke-width="2.5"
      stroke-linejoin="round"
    />
    <path d="M27.6 22.6H31.5" />
    <path d="M36.2 22.6H40.1" />
    <path d="M44.8 22.6H48.7" />
    <path d="M53.4 22.6H57.3" />
    <path d="M62 22.6H65.9" />
  </g>
</svg>
